<svg xmlns="http://www.w3.org/2000/svg" viewBox="0 0 192 192">
  <defs>
    <clipPath id="c192">
      <circle cx="96" cy="96" r="96"/>
    </clipPath>
  </defs>
  <!-- Background circle -->
  <circle cx="96" cy="96" r="96" fill="#1B2A3A"/>
  <!-- Sunset semicircle arcs, bottom half — largest (darkest) to smallest (lightest) -->
  <g clip-path="url(#c192)">
    <path d="M 4 96 A 92 92 0 0 1 188 96 Z" fill="#C83A18"/>
    <path d="M 22 96 A 74 74 0 0 1 170 96 Z" fill="#E05828"/>
    <path d="M 40 96 A 56 56 0 0 1 152 96 Z" fill="#F08730"/>
    <path d="M 58 96 A 38 38 0 0 1 134 96 Z" fill="#F5C84A"/>
    <path d="M 76 96 A 20 20 0 0 1 116 96 Z" fill="#FDFAF4"/>
  </g>
  <!-- Airplane silhouette in dark navy -->
  <!-- Fuselage -->
  <path d="M 96 52 C 101 57 101 100 96 106 C 91 100 91 57 96 52 Z" fill="#1B2A3A"/>
  <!-- Main wings -->
  <path d="M 91 72 L 36 92 L 36 97 L 91 78 L 101 78 L 156 97 L 156 92 L 101 72 Z" fill="#1B2A3A"/>
  <!-- Tail fins -->
  <path d="M 92 98 L 76 110 L 76 114 L 92 104 L 100 104 L 116 114 L 116 110 L 100 98 Z" fill="#1B2A3A"/>
</svg>
